<svg width="18" height="18" viewBox="0 0 18 18" fill="none" xmlns="http://www.w3.org/2000/svg">
<g id="&#240;&#159;&#166;&#134; icon &#34;thumbs up&#34;">
<path id="Vector" d="M13.0112 17H1.55554C1.24873 17 1 16.7513 1 16.4445V7.37059C1 7.06377 1.24873 6.81504 1.55554 6.81504H4.1181C4.76857 6.81504 5.37135 6.47375 5.70601 5.91598L8.21558 1.73331C8.75714 0.830804 10.0326 0.74501 10.6901 1.56688C11 1.95427 11.0999 2.46917 10.9573 2.94435L10.0106 6.09986C9.90369 6.45631 10.1706 6.81504 10.5428 6.81504H14.7789C15.9999 6.81504 16.8867 7.97613 16.5654 9.15406L14.7977 15.6354C14.578 16.4411 13.8463 17 13.0112 17Z" stroke="#7B4397" stroke-linecap="round"/>
<path id="Vector_2" d="M4.24068 17V6.81504" stroke="#7B4397" stroke-linecap="round" stroke-linejoin="round"/>
</g>
</svg>
