<svg width="17" height="18" viewBox="0 0 17 18" fill="none" xmlns="http://www.w3.org/2000/svg">
<g id="&#240;&#159;&#166;&#134; icon &#34;thumbs down&#34;">
<path id="Vector" d="M4.25218 1H15.7079C16.0147 1 16.2634 1.24873 16.2634 1.55554V10.6294C16.2634 10.9363 16.0147 11.185 15.7079 11.185H13.1453C12.4948 11.185 11.892 11.5262 11.5574 12.084L9.04782 16.2667C8.50625 17.1692 7.23082 17.255 6.57333 16.4331C6.26343 16.0457 6.16353 15.5309 6.30612 15.0556L7.25276 11.9001C7.35971 11.5437 7.09277 11.185 6.72065 11.185H2.48454C1.26354 11.185 0.376711 10.0239 0.698001 8.84594L2.46565 2.36456C2.68537 1.55891 3.41711 1 4.25218 1Z" stroke="#7B4397" stroke-linecap="round"/>
<path id="Vector_2" d="M13.0227 11.185V1" stroke="#7B4397" stroke-linecap="round" stroke-linejoin="round"/>
</g>
</svg>
