<svg width="16" height="21" viewBox="0 0 16 21" fill="none" xmlns="http://www.w3.org/2000/svg">
<path d="M6 19H10C10 20.1 9.1 21 8 21C6.9 21 6 20.1 6 19ZM16 16.35V18H0V16.35L2 14.47V9.32001C2 6.40001 3.56 4.10001 6 3.34001V2.96001C6 1.54001 7.49 0.460006 8.99 1.20001C9.64 1.52001 10 2.23001 10 2.96001V3.35001C12.44 4.10001 14 6.41001 14 9.33001V14.48L16 16.35ZM15 16.77L13 14.89V9.42001C13 6.95001 11.81 5.06001 9.87 4.32001C8.61 3.79001 7.23 3.82001 6.03 4.35001C4.15 5.11001 3 6.99001 3 9.42001V14.89L1 16.77V17H15V16.77Z" fill="black"/>
</svg>
