<svg width="59" height="32" viewBox="0 0 59 32" fill="none" xmlns="http://www.w3.org/2000/svg">
<g id="TuVideo2023 1" clip-path="url(#clip0_33_9308)">
<g id="layer1">
<g id="g268">
<g id="g207">
<g id="g205">
<g id="g203">
<path id="path189" d="M5.6342 32V3.21144H15.2545V-3.05176e-05H0V3.21144H2.41466V32H5.6342ZM11.2301 32C13.4531 32 15.2545 30.2031 15.2545 27.9856V4.85541H12.035V27.9856C12.035 28.4444 11.69 28.7885 11.2301 28.7885C10.7702 28.7885 10.4252 28.4444 10.4252 27.9856V4.85541H7.20565V27.9856C7.20565 30.2031 9.00706 32 11.2301 32Z" fill="url(#paint0_linear_33_9308)"/>
<path id="path191" d="M29.5508 32V0H26.3313V32H29.5508Z" fill="url(#paint1_linear_33_9308)"/>
<path id="path193" d="M35.1084 32C37.2931 32 39.0945 30.2413 39.0945 28.0239V4.01434C39.0945 1.7969 37.2931 0 35.1084 0H31.0839V32H35.1084ZM35.1084 28.8268H34.3035V3.21147H35.1084C35.53 3.21147 35.9132 3.55556 35.9132 4.01434V28.0239C35.9132 28.4444 35.53 28.8268 35.1084 28.8268Z" fill="url(#paint2_linear_33_9308)"/>
<path id="path195" d="M48.6381 32V28.8268H43.8471V12.6547H47.0283V9.48148H43.8471V3.21147H48.6381V0H40.6276V32H48.6381Z" fill="url(#paint3_linear_33_9308)"/>
<path id="path197" d="M54.5023 32C56.4571 31.8471 58.0285 30.3178 58.1818 28.2915V3.74672C58.0285 1.64397 56.3037 0 54.234 0C52.011 0.114695 50.3246 1.56751 50.1713 3.74672V28.2915C50.3629 30.4325 52.0877 32 54.1574 32H54.5023ZM54.1957 28.8268C53.7358 28.8268 53.3908 28.4444 53.3908 28.0239V4.01434C53.3908 3.55556 53.7358 3.21147 54.1957 3.21147C54.6173 3.21147 55.0006 3.55555 55.0006 4.01434V28.0239C55.0006 28.4444 54.6173 28.8268 54.1957 28.8268Z" fill="url(#paint4_linear_33_9308)"/>
<g id="g201">
<path id="path199" fill-rule="evenodd" clip-rule="evenodd" d="M24.7981 3.05176e-05L22.3834 32H19.2023L16.7876 3.05176e-05H24.7981ZM20.7929 4.17861C19.066 4.17861 17.666 5.57503 17.666 7.29761C17.666 9.02027 19.066 10.4167 20.7929 10.4167C22.5197 10.4167 23.9197 9.02027 23.9197 7.29761C23.9196 5.57503 22.5197 4.17861 20.7929 4.17861ZM20.7929 10.2534C19.1563 10.2534 17.8297 8.9301 17.8297 7.29754C17.8297 5.66514 19.1564 4.3418 20.7929 4.3418C22.4294 4.3418 23.7561 5.66514 23.7561 7.29754C23.756 8.93017 22.4294 10.2534 20.7929 10.2534ZM20.7927 4.81883C19.4203 4.81883 18.3077 5.92857 18.3077 7.29768C18.3077 8.66673 19.4203 9.77639 20.7927 9.77639C22.1652 9.77639 23.2779 8.66673 23.2779 7.29768C23.2778 5.92864 22.1652 4.81883 20.7927 4.81883ZM21.0107 7.96233L19.8588 8.62284L19.8614 7.29776L19.8639 5.97254L21.0132 6.63718L22.1625 7.30196L21.0107 7.96233Z" fill="url(#paint5_linear_33_9308)"/>
</g>
</g>
</g>
</g>
</g>
</g>
</g>
<defs>
<linearGradient id="paint0_linear_33_9308" x1="2.18127e-06" y1="16" x2="58.0741" y2="16" gradientUnits="userSpaceOnUse">
<stop stop-color="#7B4397"/>
<stop offset="1" stop-color="#F77309"/>
</linearGradient>
<linearGradient id="paint1_linear_33_9308" x1="3.73102e-05" y1="16" x2="58.1818" y2="16" gradientUnits="userSpaceOnUse">
<stop stop-color="#7B4397"/>
<stop offset="1" stop-color="#F77309"/>
</linearGradient>
<linearGradient id="paint2_linear_33_9308" x1="-5.18987e-05" y1="16" x2="58.1818" y2="16" gradientUnits="userSpaceOnUse">
<stop stop-color="#7B4397"/>
<stop offset="1" stop-color="#F77309"/>
</linearGradient>
<linearGradient id="paint3_linear_33_9308" x1="-7.45799e-05" y1="16" x2="58.1818" y2="16" gradientUnits="userSpaceOnUse">
<stop stop-color="#7B4397"/>
<stop offset="1" stop-color="#F77309"/>
</linearGradient>
<linearGradient id="paint4_linear_33_9308" x1="-3.62259e-05" y1="16" x2="58.1818" y2="16" gradientUnits="userSpaceOnUse">
<stop stop-color="#7B4397"/>
<stop offset="1" stop-color="#F77309"/>
</linearGradient>
<linearGradient id="paint5_linear_33_9308" x1="-6.27882e-05" y1="16" x2="58.1818" y2="16" gradientUnits="userSpaceOnUse">
<stop stop-color="#7B4397"/>
<stop offset="1" stop-color="#F77309"/>
</linearGradient>
<clipPath id="clip0_33_9308">
<rect width="58.1818" height="32" fill="white"/>
</clipPath>
</defs>
</svg>
